<svg width="27" height="27" viewBox="0 0 27 27" fill="none" xmlns="http://www.w3.org/2000/svg">
<path d="M11.2857 19.4204H16.6013C17.0901 19.4188 17.5584 19.1941 17.904 18.7954C18.2496 18.3967 18.4444 17.8564 18.4458 17.2926C18.443 16.7299 18.2477 16.1912 17.9022 15.7938C17.5567 15.3964 17.0892 15.1726 16.6013 15.1709H13.2312C12.4749 15.1606 11.7243 15.0201 11.004 14.754C9.66978 14.4229 7.51168 14.4045 6.52298 17.2926H4.39674M18.4192 17.2926L23.2033 14.0427C23.6208 13.7509 24.1216 13.6619 24.5959 13.7952C25.0702 13.9285 25.4792 14.2733 25.7335 14.754C25.9855 15.2353 26.0627 15.8118 25.9483 16.3584C25.8338 16.905 25.5369 17.3773 25.1223 17.6728L18.8658 23.1057C17.7504 24.074 16.392 24.5971 14.996 24.5957H4.36482M16.6439 7.67157L15.3415 9.18005C15.3335 9.18951 15.3241 9.19703 15.3136 9.20217C15.3031 9.2073 15.2918 9.20991 15.2804 9.20991C15.2689 9.20991 15.2578 9.2073 15.2473 9.20217C15.2368 9.19703 15.2272 9.18951 15.2192 9.18005L14.4166 7.66544H10.9084C10.5998 8.59144 10.0551 9.38779 9.34624 9.94939C8.63735 10.511 7.79758 10.8114 6.93761 10.8111C5.80979 10.8111 4.72808 10.2943 3.93059 9.37433C3.13309 8.45436 2.68513 7.2066 2.68513 5.90557C2.68513 4.60453 3.13309 3.35678 3.93059 2.4368C4.72808 1.51683 5.80979 1 6.93761 1C7.79696 0.999211 8.63625 1.29879 9.34508 1.85924C10.0539 2.41969 10.599 3.21471 10.9084 4.13956H18.7276L20.7262 6.09566L18.0684 9.26587L16.6439 7.70223M4.37546 16.2072C4.37546 16.1194 4.34519 16.0352 4.29136 15.9731C4.23753 15.911 4.16452 15.8761 4.08839 15.8761H1.28706C1.21093 15.8761 1.13793 15.911 1.08409 15.9731C1.03026 16.0352 1 16.1194 1 16.2072V25.6688C1 25.7567 1.03026 25.8409 1.08409 25.903C1.13793 25.9651 1.21093 26 1.28706 26H4.08839C4.16452 26 4.23753 25.9651 4.29136 25.903C4.34519 25.8409 4.37546 25.7567 4.37546 25.6688V16.2072Z" stroke="#FDFDFD" stroke-width="2" stroke-linecap="round" stroke-linejoin="round"/>
</svg>
