<svg width="27" height="27" viewBox="0 0 27 27" fill="none" xmlns="http://www.w3.org/2000/svg">
<path d="M18.124 4.28127C18.124 6.23154 14.2347 7.81254 9.437 7.81254C4.6393 7.81254 0.75 6.23154 0.75 4.28127C0.75 2.331 4.6393 0.75 9.437 0.75C14.2347 0.75 18.124 2.331 18.124 4.28127ZM18.124 4.28127V9.58111M0.750016 4.28714V10.3131C0.750016 12.2632 4.61826 13.8268 9.437 13.8268C10.0891 13.8268 10.719 13.7975 11.3269 13.739M0.750016 9.58697V16.345C0.750016 18.2951 4.61826 19.8587 9.437 19.8587C9.85699 19.8587 10.2659 19.847 10.6638 19.8235M0.750016 15.1679V21.9552C0.750016 23.9053 4.61826 25.4689 9.437 25.4689C11.1132 25.4843 12.7844 25.2737 14.4105 24.8423M16.1733 19.7416C16.1733 20.0135 16.224 20.2828 16.3224 20.534C16.4207 20.7852 16.5649 21.0134 16.7467 21.2054C16.9284 21.3974 17.144 21.5496 17.3813 21.6531C17.6186 21.7567 17.8729 21.8096 18.1295 21.8088C18.6469 21.8088 19.1431 21.591 19.5089 21.2033C19.8747 20.8156 20.0803 20.2898 20.0803 19.7416C20.0414 19.3556 19.9041 18.9882 19.6831 18.6787C19.4621 18.3692 19.1657 18.1293 18.8258 17.9847C17.8422 17.3991 16.1733 17.1707 16.1733 15.6422C16.1725 15.3698 16.2227 15.0999 16.3207 14.848C16.4188 14.5962 16.5628 14.3673 16.7446 14.1747C16.9264 13.982 17.1424 13.8293 17.3801 13.7254C17.6177 13.6215 17.8724 13.5684 18.1295 13.5692C18.3862 13.5692 18.6403 13.6228 18.8774 13.7271C19.1144 13.8313 19.3297 13.9841 19.5109 14.1767C19.6921 14.3693 19.8356 14.5979 19.9333 14.8493C20.031 15.1008 20.081 15.3703 20.0803 15.6422M18.124 13.5282V12.5502M18.124 22.7809V21.8088M25.75 17.6685C25.75 22.1318 22.3357 25.75 18.124 25.75C13.9123 25.75 10.498 22.1318 10.498 17.6685C10.498 13.2052 13.9123 9.58697 18.124 9.58697C22.3357 9.58697 25.75 13.2052 25.75 17.6685Z" stroke="#FDFDFD" stroke-width="1.5" stroke-linecap="round" stroke-linejoin="round"/>
</svg>
