<svg width="27" height="27" viewBox="0 0 27 27" fill="none" xmlns="http://www.w3.org/2000/svg">
<path d="M23.7636 14.7599V24.3375C23.7636 24.7784 23.5789 25.2013 23.2501 25.5131C22.9214 25.8248 22.4755 26 22.0105 26H4.98301C4.51808 26 4.07218 25.8248 3.74343 25.5131C3.41467 25.2013 3.23 24.7784 3.23 24.3375V14.7599M13.4968 8.6845C13.4968 8.6845 19.8838 8.33612 21.4693 7.16261C22.2261 6.60059 22.7179 5.77755 22.8374 4.87301C22.9569 3.96847 22.6945 3.05581 22.1073 2.33406C21.5143 1.61319 20.6444 1.14425 19.6879 1.02973C18.7315 0.915197 17.7661 1.16439 17.0028 1.72285C15.4302 2.89637 13.4968 8.6845 13.4968 8.6845ZM13.4968 8.6845C13.4968 8.6845 7.10972 8.33611 5.52426 7.1626C4.76693 6.60065 4.27528 5.77701 4.15691 4.87203C4.03853 3.96704 4.30308 3.05445 4.89266 2.33405C5.48462 1.6118 6.35458 1.14181 7.31157 1.02722C8.26856 0.912625 9.23449 1.1628 9.99718 1.72284C11.5633 2.89636 13.4968 8.6845 13.4968 8.6845ZM13.4968 8.6845V26M2.62413 8.68451H24.3759C25.2729 8.68451 26 9.3741 26 10.2247V12.5107C26 13.3613 25.2729 14.0509 24.3759 14.0509H2.62413C1.72715 14.0509 1 13.3613 1 12.5107V10.2247C1 9.3741 1.72715 8.68451 2.62413 8.68451Z" stroke="#FDFDFD" stroke-width="2" stroke-linecap="round" stroke-linejoin="round"/>
</svg>
