<svg width="25" height="25" viewBox="0 0 25 25" fill="none" xmlns="http://www.w3.org/2000/svg">
<path d="M11.9318 4.54557C12.8732 4.54557 13.6364 3.78241 13.6364 2.84102C13.6364 1.89963 12.8732 1.13647 11.9318 1.13647C10.9904 1.13647 10.2273 1.89963 10.2273 2.84102C10.2273 3.78241 10.9904 4.54557 11.9318 4.54557Z" fill="#1B1B1B"/>
<path d="M11.9318 11.3639C12.8732 11.3639 13.6364 10.6008 13.6364 9.65938C13.6364 8.71798 12.8732 7.95483 11.9318 7.95483C10.9904 7.95483 10.2273 8.71798 10.2273 9.65938C10.2273 10.6008 10.9904 11.3639 11.9318 11.3639Z" fill="#1B1B1B"/>
<path d="M11.9318 18.1818C12.8732 18.1818 13.6364 17.4186 13.6364 16.4773C13.6364 15.5359 12.8732 14.7727 11.9318 14.7727C10.9904 14.7727 10.2273 15.5359 10.2273 16.4773C10.2273 17.4186 10.9904 18.1818 11.9318 18.1818Z" fill="#1B1B1B"/>
</svg>
