<svg width="23" height="28" viewBox="0 0 23 28" fill="none" xmlns="http://www.w3.org/2000/svg">
<path d="M1.26856 18.8287C0.730528 20.1656 0.470146 21.5944 0.502719 23.0313C0.502719 28.9896 22.4864 28.9896 22.4973 23.0313C22.5299 21.5944 22.2695 20.1656 21.7315 18.8287C21.1935 17.4919 20.3886 16.2739 19.3642 15.2464C18.3397 14.2188 17.1164 13.4024 15.7659 12.845C14.4155 12.2876 12.9651 12.0005 11.5 12.0005C10.0349 12.0005 8.58451 12.2876 7.23405 12.845C5.88359 13.4024 4.66026 14.2188 3.63584 15.2464C2.61142 16.2739 1.80659 17.4919 1.26856 18.8287Z" fill="#1B1B1B"/>
<path d="M11.4919 9.16262C13.9303 9.16262 15.9071 7.22342 15.9071 4.83131C15.9071 2.43919 13.9303 0.5 11.4919 0.5C9.05339 0.5 7.07663 2.43919 7.07663 4.83131C7.07663 7.22342 9.05339 9.16262 11.4919 9.16262Z" fill="#1B1B1B"/>
<path d="M1.26856 18.8287C0.730528 20.1656 0.470146 21.5944 0.502719 23.0313C0.502719 28.9896 22.4864 28.9896 22.4973 23.0313C22.5299 21.5944 22.2695 20.1656 21.7315 18.8287C21.1935 17.4919 20.3886 16.2739 19.3642 15.2464C18.3397 14.2188 17.1164 13.4024 15.7659 12.845C14.4155 12.2876 12.9651 12.0005 11.5 12.0005C10.0349 12.0005 8.58451 12.2876 7.23405 12.845C5.88359 13.4024 4.66026 14.2188 3.63584 15.2464C2.61142 16.2739 1.80659 17.4919 1.26856 18.8287Z" stroke="black" stroke-linecap="round" stroke-linejoin="round"/>
<path d="M11.4919 9.16262C13.9303 9.16262 15.9071 7.22342 15.9071 4.83131C15.9071 2.43919 13.9303 0.5 11.4919 0.5C9.05339 0.5 7.07663 2.43919 7.07663 4.83131C7.07663 7.22342 9.05339 9.16262 11.4919 9.16262Z" stroke="black" stroke-linecap="round" stroke-linejoin="round"/>
</svg>
