<svg width="27" height="29" viewBox="0 0 27 29" fill="none" xmlns="http://www.w3.org/2000/svg">
<path d="M10.7712 18.9561L18.071 13.5698C18.0372 13.5043 17.987 13.4473 17.9239 13.4051L8.55063 7.1255C8.29583 6.95481 8.28732 6.58311 8.53405 6.40094L11.0799 4.52114C11.2303 4.41009 11.4342 4.40539 11.5896 4.50939L21.2269 10.9609C21.3498 11.0431 21.4236 11.1813 21.4236 11.3291V15.4152V19.3794C21.4236 19.52 21.3568 19.6523 21.2437 19.7358L18.8267 21.5205C18.5342 21.7364 18.1204 21.5276 18.1204 21.164V17.8542L10.7711 23.2738C10.6207 23.3847 10.417 23.3894 10.2617 23.2855L0.946657 17.0525C0.691697 16.8819 0.683061 16.5101 0.929825 16.3279L3.49266 14.435L10.2616 18.9678C10.4169 19.0718 10.6208 19.0671 10.7712 18.9561Z" fill="black"/>
<path d="M18.1159 13.5367L10.7712 18.9561C10.6208 19.0671 10.4169 19.0718 10.2616 18.9678L0.946728 12.7301C0.691775 12.5594 0.683335 12.1875 0.930281 12.0054L16.075 0.836429C16.2254 0.725539 16.4291 0.720879 16.5844 0.824778L25.8991 7.05752C26.1541 7.22818 26.1627 7.60016 25.9157 7.78234L21.4638 11.0666M18.1204 17.8542L10.7711 23.2738C10.6207 23.3847 10.417 23.3894 10.2617 23.2855L0.946657 17.0525C0.691697 16.8819 0.683061 16.5101 0.929825 16.3279L3.49344 14.4344M23.3526 9.67583L25.8989 11.38C26.154 11.5507 26.1624 11.9228 25.9153 12.1049L21.4236 15.4152M23.5317 13.8584L25.9254 15.564C26.1708 15.7389 26.1738 16.1024 25.9313 16.2814L10.7712 27.4666C10.6208 27.5776 10.4169 27.5823 10.2616 27.4782L0.946725 21.2406C0.691772 21.0699 0.683331 20.698 0.930275 20.5159L3.39945 18.6949M11.5896 4.50939L21.2269 10.9609C21.3498 11.0431 21.4236 11.1813 21.4236 11.3291V19.3794C21.4236 19.52 21.3568 19.6523 21.2437 19.7358L18.8267 21.5205C18.5342 21.7364 18.1204 21.5276 18.1204 21.164V13.7732C18.1204 13.6254 18.0467 13.4873 17.9239 13.4051L8.55063 7.1255C8.29583 6.95481 8.28733 6.58311 8.53405 6.40094L11.0799 4.52114C11.2303 4.41009 11.4342 4.40539 11.5896 4.50939Z" stroke="black" stroke-width="1.5" stroke-linecap="round" stroke-linejoin="round"/>
</svg>
