<svg width="27" height="27" viewBox="0 0 27 27" fill="none" xmlns="http://www.w3.org/2000/svg">
<path d="M2.59569 1.87646L1 10.0297C1.00476 10.6792 1.35172 11.3133 1.99717 11.8521C2.64261 12.3908 3.55761 12.81 4.62655 13.0567L3.52026 24.1247C3.49829 24.6069 3.81697 25.0743 4.40653 25.4248C4.99609 25.7753 5.80875 25.9802 6.66648 25.9949C7.52422 25.9802 8.33665 25.7753 8.92621 25.4248C9.51578 25.0743 9.83446 24.6069 9.81249 24.1247L9.05991 13.0567C10.1296 12.8105 11.0452 12.3915 11.6908 11.8527C12.3364 11.3138 12.6829 10.6794 12.6865 10.0297L11.39 1.87646M6.82958 2.15164V10.5699M25.3793 12.9038C24.8563 12.9431 24.3788 13.092 24.0426 13.3206C23.7064 13.5493 23.5363 13.8408 23.5661 14.137L24.5635 24.1298C24.5854 24.612 24.2667 25.0794 23.6772 25.4299C23.0876 25.7804 22.275 25.9853 21.4172 26C20.5595 25.9853 19.7471 25.7804 19.1575 25.4299C18.5679 25.0794 18.2493 24.612 18.2712 24.1298L18.9693 13.6682C18.9827 13.4751 18.928 13.2825 18.8082 13.1015C18.6884 12.9204 18.5058 12.7545 18.2712 12.6133V1C18.2712 1 28.6523 1.24459 25.3521 12.9038H25.3793Z" stroke="#FDFDFD" stroke-width="2" stroke-linecap="round" stroke-linejoin="round"/>
</svg>
