<svg width="25" height="25" viewBox="0 0 25 25" fill="none" xmlns="http://www.w3.org/2000/svg">
<path d="M5.38722 22.6741C6.69194 17.2625 5.14311 17.0774 5.14311 14.4515C5.14311 13.5763 5.83335 11.4807 5.93436 10.4623C6.17005 8.12263 5.58924 8.74542 7.298 7.0117L7.39901 4.60469C8.2576 3.77991 8.68689 3.03929 9.73908 3.30019C10.3788 5.20223 9.16669 4.60469 9.04884 6.82654C9.76433 7.77757 10.2441 7.87014 10.7829 9.06523C11.4647 10.5801 10.9765 10.5633 12.2643 11.8341C14.1583 12.053 15.3031 12.0614 16.6583 10.698C16.8014 9.24197 15.9596 9.36821 16.8182 8.03005C17.4074 7.11269 17.9883 6.61614 19.091 6.98645C19.4529 8.41719 17.8283 8.71175 18.3334 10.3024C20.5135 10.5212 21.0186 7.51667 22.6852 7.36518C22.6852 10.5717 19.3351 10.9925 19.2593 13.6015C19.2088 15.2342 20.6566 19.7284 22.1213 20.6879C23.4091 18.7101 24.798 16.5556 24.958 14.1654C26.0775 -2.14504 4.49496 -5.11592 0.395624 9.16622C0.185186 9.89843 0.0589227 10.639 0 11.3797V13.2733C0.361954 17.9695 3.25758 22.0934 5.38722 22.6741Z" fill="#FDFDFD"/>
<path d="M11.7004 24.8623C17.5337 25.5525 16.9192 23.7514 15.766 17.1111C15.3115 14.4937 14.7812 13.1134 11.6751 13.3575C9.73908 15.6551 10.7155 20.1325 10.7829 22.0934C10.8334 23.642 10.5724 23.743 11.7004 24.8623ZM18.4091 23.2633C19.3856 23.1454 19.5539 22.9435 20.3452 22.3123C20.4714 20.9741 19.5539 18.8196 18.1229 18.3903C17.4495 19.6864 17.6431 21.9924 18.4091 23.2633ZM8.79632 24.3742C8.79632 22.7415 8.99834 19.3666 8.15659 18.2052C7.03706 18.5334 7.38217 19.4929 7.37376 21.538C7.36534 23.036 7.08756 24.2227 8.79632 24.3742Z" fill="#FDFDFD"/>
</svg>
