<?xml version="1.0" standalone="no"?>
<!DOCTYPE svg PUBLIC "-//W3C//DTD SVG 20010904//EN"
 "http://www.w3.org/TR/2001/REC-SVG-20010904/DTD/svg10.dtd">
<svg version="1.0" xmlns="http://www.w3.org/2000/svg"
 width="1024.000000pt" height="1024.000000pt" viewBox="0 0 1024.000000 1024.000000"
 preserveAspectRatio="xMidYMid meet">

<g transform="translate(0.000000,1024.000000) scale(0.100000,-0.100000)"
fill="#000000" stroke="none">
<path d="M7205 8879 c-33 -5 -264 -34 -513 -64 -249 -30 -467 -61 -485 -69
-36 -15 -93 -75 -108 -113 -15 -41 -10 -104 12 -151 26 -53 79 -90 139 -97 25
-3 162 10 305 28 143 19 261 33 262 32 2 -1 -828 -829 -1254 -1250 l-242 -239
-58 55 c-584 551 -720 677 -747 691 -39 21 -108 23 -150 3 -17 -8 -504 -489
-1083 -1068 -1134 -1136 -1082 -1079 -1069 -1175 15 -112 144 -183 249 -138
19 8 439 421 1007 990 536 537 979 976 983 976 4 0 182 -166 396 -368 352
-335 392 -370 435 -381 64 -16 116 -1 174 52 43 38 373 364 1312 1294 184 183
336 331 337 329 2 -2 -13 -117 -33 -257 -20 -140 -33 -269 -30 -288 13 -80 97
-151 179 -151 76 0 150 49 181 118 9 22 45 251 86 560 62 455 69 528 59 560
-18 55 -38 80 -84 107 -36 21 -53 25 -121 24 -43 -1 -106 -6 -139 -10z"/>
<path d="M6473 7141 c-23 -11 -52 -35 -67 -57 l-26 -39 0 -1634 c0 -1630 0
-1634 21 -1667 56 -90 201 -105 271 -27 50 55 48 -19 48 1598 l0 1505 335 -2
335 -3 0 -1495 c0 -979 4 -1508 10 -1531 22 -79 81 -122 167 -122 68 0 127 37
154 96 18 41 19 92 19 1642 0 1020 -4 1613 -10 1635 -11 41 -61 94 -103 109
-19 7 -212 11 -570 11 -509 0 -545 -2 -584 -19z"/>
<path d="M4729 6087 c-18 -12 -44 -38 -56 -56 l-23 -34 0 -1107 0 -1107 23
-33 c74 -110 212 -112 291 -6 21 27 21 35 24 1027 l2 999 330 0 330 0 0 -985
c0 -1078 -3 -1026 59 -1078 66 -55 155 -56 221 -1 64 54 60 -24 60 1187 l0
1104 -23 34 c-12 18 -38 44 -56 56 l-34 23 -557 0 -557 0 -34 -23z"/>
<path d="M3069 5070 c-46 -13 -78 -41 -99 -84 -19 -41 -20 -58 -20 -623 l0
-580 23 -33 c63 -93 176 -112 258 -43 59 50 59 48 59 563 l0 470 330 0 329 0
3 -483 3 -484 28 -36 c37 -49 80 -70 143 -70 63 0 113 28 146 81 l23 37 3 563
c2 365 -1 576 -8 601 -14 52 -46 90 -94 112 -38 17 -76 19 -571 18 -291 0
-542 -4 -556 -9z"/>
<path d="M4020 2420 l0 -790 155 0 155 0 0 790 0 790 -155 0 -155 0 0 -790z"/>
<path d="M2820 2395 l0 -765 160 0 160 0 0 310 0 310 290 0 290 0 0 130 0 130
-290 -3 -290 -2 0 193 0 192 335 0 335 0 0 135 0 135 -495 0 -495 0 0 -765z"/>
<path d="M4962 2780 c-265 -70 -422 -285 -422 -580 0 -282 138 -486 383 -566
70 -23 100 -27 207 -28 143 -1 202 10 310 62 87 41 179 127 223 209 66 124 90
344 54 495 -65 271 -281 429 -581 427 -66 0 -127 -7 -174 -19z m268 -226 c39
-12 66 -29 106 -68 74 -75 98 -154 92 -304 -4 -90 -9 -117 -32 -167 -51 -112
-125 -165 -240 -173 -93 -6 -158 20 -219 88 -64 71 -82 131 -82 275 0 111 2
125 28 180 69 147 202 212 347 169z"/>
<path d="M5815 2733 c8 -27 85 -285 172 -575 l157 -528 157 0 158 0 20 68 c11
37 61 211 112 387 50 176 95 324 99 328 6 6 115 -362 222 -750 l9 -33 163 0
164 0 25 83 c14 45 89 293 167 550 77 258 145 479 150 493 l10 24 -149 0 -149
0 -11 -32 c-15 -48 -144 -523 -177 -655 -16 -62 -31 -113 -35 -113 -3 0 -11
21 -17 48 -7 26 -59 205 -116 397 l-104 350 -142 0 -142 0 -69 -220 c-37 -121
-92 -295 -121 -387 -47 -152 -68 -199 -68 -150 0 9 -44 184 -99 387 l-98 370
-151 3 -151 3 14 -48z"/>
</g>
</svg>
