<svg width="27" height="27" viewBox="0 0 27 27" fill="none" xmlns="http://www.w3.org/2000/svg">
<path d="M13.4917 5.21941V15.1184M8.42824 22.7466V24.6009C8.42824 24.972 8.28055 25.3278 8.01759 25.5902C7.75463 25.8526 7.39794 26 7.02606 26H5.52932C5.15744 26 4.80075 25.8526 4.5378 25.5902C4.27484 25.3278 4.12714 24.972 4.12714 24.6009V20.7146M18.5717 22.7466V24.6009C18.5717 24.972 18.7194 25.3278 18.9824 25.5902C19.2454 25.8526 19.6021 26 19.9739 26H21.4707C21.8425 26 22.1992 25.8526 22.4622 25.5902C22.7252 25.3278 22.8729 24.972 22.8729 24.6009V20.7146M11.444 20.326H15.5337M6.44181 17.3502C6.44181 17.3502 6.28601 19.3711 8.52281 19.1046M20.5359 17.3502C20.5359 17.3502 20.6917 19.3711 18.4549 19.1046M22.8951 6.85166H24.3919C24.6035 6.85166 24.8131 6.89334 25.0086 6.97432C25.2041 7.0553 25.3815 7.17397 25.5309 7.32355C25.6803 7.47313 25.7986 7.65066 25.8791 7.84597C25.9596 8.04128 26.0007 8.25054 26 8.46171V10.9822M4.10487 6.85166H2.60814C2.39649 6.85166 2.18686 6.89334 1.9914 6.97432C1.79594 7.0553 1.61847 7.17397 1.46908 7.32355C1.31969 7.47313 1.2014 7.65066 1.12091 7.84597C1.04043 8.04128 0.999277 8.25054 1.00001 8.46171V10.9822M6.24152 1H20.7418C21.9218 1 22.8784 1.95449 22.8784 3.13191V20.6203C22.8784 21.7977 21.9218 22.7522 20.7418 22.7522H6.24152C5.06148 22.7522 4.10487 21.7977 4.10487 20.6203V3.13191C4.10487 1.95449 5.06148 1 6.24152 1ZM6.16918 5.21941H20.8086C21.3561 5.21941 21.8811 5.43642 22.2682 5.82269C22.6554 6.20897 22.8729 6.73287 22.8729 7.27915V15.1184H4.10487V7.27915C4.10487 6.73287 4.32236 6.20897 4.70949 5.82269C5.09663 5.43642 5.62169 5.21941 6.16918 5.21941Z" stroke="#FDFDFD" stroke-width="2" stroke-linecap="round" stroke-linejoin="round"/>
</svg>
